#!OML:ASF F:\VICON\USERDATA\INSTALL\SteveWalk\SteveWalk.ASF
:FULLY-SPECIFIED
:DEGREES
319
root 0.460143 16.2389 21.5975 17.1386 1.6175 2.07268
lowerback -14.4023 -1.47437 -4.64671
upperback -5.57084 -1.29248 -0.676883
thorax 2.26588 -0.602323 1.70536
lowerneck -4.20429 -0.967035 -1.33675
upperneck 12.0098 -1.54106 2.94533
head 4.79092 -0.669006 1.16015
rclavicle 3.75827e-016 6.75868e-015
rhumerus -60.0115 -37.4484 -46.9243
rradius 11.0693
rwrist 40.667
rhand -11.5724 -32.8302
rfingers 7.12502
rthumb 14.469 -62.3057
lclavicle 3.75827e-016 6.75868e-015
lhumerus -26.8362 5.54507 81.2752
lradius 27.9873
lwrist 5.74731
lhand -19.0713 -11.632
lfingers 7.12502
lthumb 7.23634 18.2243
rfemur -47.0814 -3.7406 20.7205
rtibia 58.6445
rfoot -12.7332 -5.09308
rtoes -6.27069
lfemur -24.3276 5.17997 -26.2679
ltibia 34.2984
lfoot -25.4775 -8.7005
ltoes -8.94401
320
root 0.451792 16.2358 21.7992 17.1857 1.85388 1.83108
lowerback -14.4833 -1.54366 -4.5036
upperback -5.49909 -1.40189 -0.511287
thorax 2.39332 -0.660122 1.7779
lowerneck -4.27737 -0.975658 -1.26639
upperneck 11.8994 -1.54812 2.88024
head 4.76329 -0.672638 1.1239
rclavicle -9.83363e-015 1.98785e-015
rhumerus -63.185 -39.1614 -42.0803
rradius 10.6932
rwrist 43.8713
rhand -11.3987 -33.6024
rfingers 7.12502
rthumb 14.6364 -63.0658
lclavicle -9.83363e-015 1.98785e-015
lhumerus -25.7569 3.88292 81.7774
lradius 29.18
lwrist 6.91226
lhand -19.3551 -12.0361
lfingers 7.12502
lthumb 6.96239 17.8294
rfemur -47.6514 -3.42422 21.0698
rtibia 55.8623
rfoot -12.5695 -5.71044
rtoes -2.4629
lfemur -23.2034 5.77565 -25.9252
ltibia 33.5797
lfoot -25.89 -8.54496
ltoes -11.8051
321
root 0.4904 16.2626 21.9953 17.2109 2.98747 1.68106
lowerback -14.3622 -1.7281 -3.58305
upperback -5.49544 -1.77497 -0.507306
thorax 2.33426 -0.852668 1.20495
lowerneck -4.09891 -1.03713 -1.25983
upperneck 11.6887 -1.62904 2.89338
head 4.65148 -0.714033 1.12133
rclavicle 1.59338e-014 1.70955e-014
rhumerus -66.225 -40.2136 -37.7984
rradius 10.4478
rwrist 45.9781
rhand -12.0313 -34.116
rfingers 7.12502
rthumb 14.0268 -63.6227
lclavicle 1.59338e-014 1.70955e-014
lhumerus -24.7853 2.07227 82.2447
lradius 30.4418
lwrist 8.05659
lhand -19.8354 -13.0403
lfingers 7.12502
lthumb 6.49868 16.8399
rfemur -47.9792 -4.7881 21.4949
rtibia 52.8844
rfoot -13.1838 -4.90882
rtoes 2.65825
lfemur -21.8867 5.86527 -25.6374
ltibia 32.6058
lfoot -25.921 -9.8315
ltoes -10.3116
322
root 0.465804 16.2695 22.2014 17.1235 2.90205 2.06455
lowerback -14.2624 -1.78067 -4.34088
upperback -5.42713 -1.74513 -0.51225
thorax 2.36905 -0.832336 1.63235
lowerneck -3.98316 -1.14436 -1.31138
upperneck 11.5469 -1.77536 2.96954
head 4.58187 -0.786287 1.14796
rclavicle -3.2127e-014 -1.17283e-014
rhumerus -70.6003 -41.5911 -31.579
rradius 10.0971
rwrist 50.1616
rhand -12.283 -34.8798
rfingers 7.12502
rthumb 13.7843 -64.4032
lclavicle -3.2127e-014 -1.17283e-014
lhumerus -23.8284 0.314964 82.5946
lradius 31.8008
lwrist 9.10512
lhand -20.0003 -13.6295
lfingers 7.12502
lthumb 6.33952 16.2556
rfemur -48.2089 -4.2565 21.0665
rtibia 49.8206
rfoot -13.0505 -5.29268
rtoes 5.44527
lfemur -20.4832 6.27874 -25.8539
ltibia 31.5553
lfoot -25.5696 -10.7061
ltoes -8.08111
323
root 0.456562 16.2603 22.4051 16.9839 3.10578 2.25433
lowerback -14.1902 -1.82864 -4.61281
upperback -5.2566 -1.77057 -0.513008
thorax 2.51781 -0.847849 1.77944
lowerneck -4.25858 -1.25799 -1.37813
upperneck 11.6419 -1.93469 3.06285
head 4.67977 -0.860168 1.18373
rclavicle -5.14511e-015 -1.49089e-014
rhumerus -72.7492 -41.8905 -28.6813
rradius 9.63261
rwrist 52.2281
rhand -12.2926 -35.73
rfingers 7.12502
rthumb 13.775 -65.254
lclavicle -5.14511e-015 -1.49089e-014
lhumerus -22.7287 -1.22747 82.8319
lradius 33.0979
lwrist 9.98536
lhand -20.0157 -13.7564
lfingers 7.12502
lthumb 6.3247 16.1292
rfemur -48.1237 -4.2116 20.997
rtibia 46.6351
rfoot -12.7566 -5.80442
rtoes 2.93095
lfemur -18.9756 6.69926 -25.8686
ltibia 30.508
lfoot -25.6474 -10.7545
ltoes -10.3823
324
root 0.457097 16.2381 22.6076 16.8982 3.50465 2.27545
lowerback -14.2902 -1.88515 -4.53702
upperback -5.07456 -1.84536 -0.466439
thorax 2.7677 -0.892339 1.76778
lowerneck -4.3827 -1.33179 -1.41447
upperneck 11.5974 -2.02975 3.06858
head 4.69211 -0.907406 1.18656
rclavicle 6.17601e-015 9.74045e-015
rhumerus -74.9509 -42.0868 -25.7199
rradius 9.86328
rwrist 52.7379
rhand -11.4329 -36.7935
rfingers 7.12502
rthumb 14.6034 -66.2593
lclavicle 6.17601e-015 9.74045e-015
lhumerus -21.6301 -2.52449 83.0571
lradius 34.2487
lwrist 10.7469
lhand -20.2678 -14.011
lfingers 7.12502
lthumb 6.08131 15.8817
rfemur -47.9782 -4.51204 21.2
rtibia 43.4277
rfoot -13.1082 -5.90912
rtoes -2.39706
lfemur -17.5276 7.06845 -25.6921
ltibia 29.546
lfoot -26.1281 -9.96269
ltoes -16.3133
325
root 0.464637 16.2216 22.8118 16.8705 3.9743 2.39239
lowerback -14.2905 -1.98232 -4.43527
upperback -5.09071 -1.98709 -0.466087
thorax 2.75718 -0.962548 1.68727
lowerneck -3.9556 -1.4003 -1.37271
upperneck 11.3531 -2.12044 3.05592
head 4.51741 -0.955924 1.16919
rclavicle 1.49593e-015 -3.37934e-015
rhumerus -77.2471 -41.8975 -22.735
rradius 9.94067
rwrist 53.7563
rhand -11.5102 -36.5369
rfingers 7.12502
rthumb 14.5289 -66.0081
lclavicle 1.49593e-015 -3.37934e-015
lhumerus -20.9287 -3.75728 83.2069
lradius 35.4126
lwrist 11.3863
lhand -20.5916 -14.2191
lfingers 7.12502
lthumb 5.76868 15.6823
rfemur -47.9223 -5.06917 21.3111
rtibia 40.16
rfoot -13.4061 -5.49251
rtoes -5.36807
lfemur -16.1481 7.32063 -25.6036
ltibia 28.638
lfoot -26.4605 -9.75963
ltoes -19.557
